REM DIRINDEX 1\2\6,1\2\7,1\2\8,1\2\9,1\3\10,1\3\11,1\4\12,1\4\13,1\4\14,1\5\15,1\5\16,1\5\17
REM DIRNAME cjc029,folder01,folder02,folder03,folder04,folder05,folder06,folder07,folder08,folder09,folder10,folder11,folder12,folder13,folder14,folder15,folder16
TITLE ""
FILE "1400_2_sec03_0266_0283.mp3" MP3
  TRACK 01 AUDIO
    TITLE "0:"
    INDEX 01 00:00:00
  TRACK 02 AUDIO
    TITLE "13:cjc029_2106"
    INDEX 01 00:00:19
  TRACK 03 AUDIO
    TITLE "0:"
    INDEX 01 00:01:28
  TRACK 04 AUDIO
    TITLE "14:cjc029_2107"
    INDEX 01 00:01:34
  TRACK 05 AUDIO
    TITLE "0:"
    INDEX 01 00:03:66
  TRACK 06 AUDIO
    TITLE "13:cjc029_2108"
    INDEX 01 00:04:56
  TRACK 07 AUDIO
    TITLE "0:"
    INDEX 01 00:05:63
  TRACK 08 AUDIO
    TITLE "14:cjc029_2109"
    INDEX 01 00:05:67
  TRACK 09 AUDIO
    TITLE "0:"
    INDEX 01 00:07:11
  TRACK 10 AUDIO
    TITLE "13:cjc029_2110"
    INDEX 01 00:07:66
  TRACK 11 AUDIO
    TITLE "0:"
    INDEX 01 00:09:06
  TRACK 12 AUDIO
    TITLE "14:cjc029_2111"
    INDEX 01 00:09:10
  TRACK 13 AUDIO
    TITLE "0:"
    INDEX 01 00:12:20
  TRACK 14 AUDIO
    TITLE "13:cjc029_2112"
    INDEX 01 00:13:02
  TRACK 15 AUDIO
    TITLE "0:"
    INDEX 01 00:14:07
  TRACK 16 AUDIO
    TITLE "14:cjc029_2113"
    INDEX 01 00:14:13
  TRACK 17 AUDIO
    TITLE "0:"
    INDEX 01 00:15:19
  TRACK 18 AUDIO
    TITLE "13:cjc029_2114"
    INDEX 01 00:16:00
  TRACK 19 AUDIO
    TITLE "0:"
    INDEX 01 00:17:10
  TRACK 20 AUDIO
    TITLE "14:cjc029_2115"
    INDEX 01 00:17:14
  TRACK 21 AUDIO
    TITLE "0:"
    INDEX 01 00:21:35
  TRACK 22 AUDIO
    TITLE "13:cjc029_2116"
    INDEX 01 00:22:15
  TRACK 23 AUDIO
    TITLE "0:"
    INDEX 01 00:23:28
  TRACK 24 AUDIO
    TITLE "14:cjc029_2117"
    INDEX 01 00:23:34
  TRACK 25 AUDIO
    TITLE "0:"
    INDEX 01 00:27:63
  TRACK 26 AUDIO
    TITLE "13:cjc029_2118"
    INDEX 01 00:28:43
  TRACK 27 AUDIO
    TITLE "0:"
    INDEX 01 00:29:56
  TRACK 28 AUDIO
    TITLE "14:cjc029_2119"
    INDEX 01 00:29:62
  TRACK 29 AUDIO
    TITLE "0:"
    INDEX 01 00:32:41
  TRACK 30 AUDIO
    TITLE "13:cjc029_2120"
    INDEX 01 00:33:26
  TRACK 31 AUDIO
    TITLE "0:"
    INDEX 01 00:34:34
  TRACK 32 AUDIO
    TITLE "14:cjc029_2121"
    INDEX 01 00:34:40
  TRACK 33 AUDIO
    TITLE "0:"
    INDEX 01 00:35:74
  TRACK 34 AUDIO
    TITLE "13:cjc029_2122"
    INDEX 01 00:36:54
  TRACK 35 AUDIO
    TITLE "0:"
    INDEX 01 00:37:57
  TRACK 36 AUDIO
    TITLE "14:cjc029_2123"
    INDEX 01 00:37:61
  TRACK 37 AUDIO
    TITLE "0:"
    INDEX 01 00:42:63
  TRACK 38 AUDIO
    TITLE "13:cjc029_2124"
    INDEX 01 00:43:44
  TRACK 39 AUDIO
    TITLE "0:"
    INDEX 01 00:44:60
  TRACK 40 AUDIO
    TITLE "14:cjc029_2125"
    INDEX 01 00:44:63
  TRACK 41 AUDIO
    TITLE "0:"
    INDEX 01 00:47:27
  TRACK 42 AUDIO
    TITLE "13:cjc029_2126"
    INDEX 01 00:48:12
  TRACK 43 AUDIO
    TITLE "0:"
    INDEX 01 00:49:21
  TRACK 44 AUDIO
    TITLE "14:cjc029_2127"
    INDEX 01 00:49:27
  TRACK 45 AUDIO
    TITLE "0:"
    INDEX 01 00:52:47
  TRACK 46 AUDIO
    TITLE "12:cjc029_2128"
    INDEX 01 00:54:21
  TRACK 47 AUDIO
    TITLE "0:"
    INDEX 01 00:55:65
  TRACK 48 AUDIO
    TITLE "13:cjc029_2129"
    INDEX 01 00:56:65
  TRACK 49 AUDIO
    TITLE "0:"
    INDEX 01 00:57:66
  TRACK 50 AUDIO
    TITLE "14:cjc029_2130"
    INDEX 01 00:57:70
  TRACK 51 AUDIO
    TITLE "0:"
    INDEX 01 00:59:26
  TRACK 52 AUDIO
    TITLE "13:cjc029_2131"
    INDEX 01 01:00:04
  TRACK 53 AUDIO
    TITLE "0:"
    INDEX 01 01:01:11
  TRACK 54 AUDIO
    TITLE "14:cjc029_2132"
    INDEX 01 01:01:17
  TRACK 55 AUDIO
    TITLE "0:"
    INDEX 01 01:05:28
  TRACK 56 AUDIO
    TITLE "13:cjc029_2133"
    INDEX 01 01:06:08
  TRACK 57 AUDIO
    TITLE "0:"
    INDEX 01 01:07:08
  TRACK 58 AUDIO
    TITLE "14:cjc029_2134"
    INDEX 01 01:07:14
  TRACK 59 AUDIO
    TITLE "0:"
    INDEX 01 01:08:17
  TRACK 60 AUDIO
    TITLE "13:cjc029_2135"
    INDEX 01 01:08:74
  TRACK 61 AUDIO
    TITLE "0:"
    INDEX 01 01:10:10
  TRACK 62 AUDIO
    TITLE "14:cjc029_2136"
    INDEX 01 01:10:12
  TRACK 63 AUDIO
    TITLE "0:"
    INDEX 01 01:12:48
  TRACK 64 AUDIO
    TITLE "13:cjc029_2137"
    INDEX 01 01:13:28
  TRACK 65 AUDIO
    TITLE "0:"
    INDEX 01 01:14:23
  TRACK 66 AUDIO
    TITLE "14:cjc029_2138"
    INDEX 01 01:14:33
  TRACK 67 AUDIO
    TITLE "0:"
    INDEX 01 01:18:39
  TRACK 68 AUDIO
    TITLE "13:cjc029_2139"
    INDEX 01 01:19:17
  TRACK 69 AUDIO
    TITLE "0:"
    INDEX 01 01:20:16
  TRACK 70 AUDIO
    TITLE "14:cjc029_2140"
    INDEX 01 01:20:20
  TRACK 71 AUDIO
    TITLE "0:"
    INDEX 01 01:21:43
  TRACK 72 AUDIO
    TITLE "13:cjc029_2141"
    INDEX 01 01:22:25
  TRACK 73 AUDIO
    TITLE "0:"
    INDEX 01 01:23:34
  TRACK 74 AUDIO
    TITLE "14:cjc029_2142"
    INDEX 01 01:23:42
  TRACK 75 AUDIO
    TITLE "0:"
    INDEX 01 01:26:70
